<svg version="1.1" xmlns="http://www.w3.org/2000/svg" viewBox="-267.2639991760254 -2854.4000305175778 4115.45615234375 3324.4160095214843"><desc>Created with Snap</desc><defs></defs><g><g transform="matrix(18.4302,0,0,18.4302,868.9657,-2636.9549)"><g><path d="M46.547,58.738c-4.128-4.331-11.578-7.743-11.771-17.221c-0.446,0.713-1.499,2.698-1.823,3.53   c-1.18,3.038-1.942,4.97-2.189,8.174c-0.286,3.715,0.227,6.195,2.004,9.602c1.649,3.162,4.247,5.8,6.711,8.482   c5.896,6.421,11.213,13.426,10.593,22.088c-0.033,0.465,0.008,1.322-0.319,1.736c0,0,29.919-14.245,15.744-44.29   C60.95,41.201,47.3,19.572,51.553,4.87c-2.179,1.428-3.599,3.265-4.487,4.34c-3.241,3.922-5.891,8.294-7.715,12.912   c-2.116,5.355-2.975,11.152-1.662,17.047c1.219,5.471,4.188,10.625,6.921,15.78C45.276,56.205,45.92,57.47,46.547,58.738" fill="#603f83" style=""></path></g><desc>Created with Snap</desc><defs></defs></g><g><g transform="matrix(1.024,0,0,-1.024,0,0)"><path d="M534 0L39 0L39 53L117 53L117 510L39 510L39 563L529 563L529 396L466 396L466 510L199 510L199 319L374 319L374 385L415 385L415 197L374 197L374 264L199 264L199 53L471 53L471 170L534 170L534 0ZM756 -11Q695 -11 658 23Q621 57 621 106Q621 151 642 178Q664 205 700 217Q736 229 779 229Q813 229 848 223Q884 218 918 209L888 204L888 257Q888 304 863 326Q838 348 795 348Q767 348 729 338Q692 329 660 312L638 360Q673 382 717 392Q761 403 796 403Q848 403 885 386Q922 369 941 337Q961 306 961 264L961 53L1023 53L1023 0L896 0L890 56L918 56Q879 22 842 5Q805 -11 756 -11ZM767 40Q804 40 841 56Q878 72 918 105L888 69L888 185L911 167Q885 175 852 180Q819 185 784 185Q749 185 720 169Q691 154 691 110Q691 80 711 60Q731 40 767 40ZM1282 -10Q1251 -10 1222 -2Q1194 6 1173 20Q1152 34 1141 53L1156 44L1156 0L1098 0L1098 136L1150 136L1156 71L1142 118Q1153 81 1191 61Q1230 41 1272 41Q1310 41 1335 56Q1361 71 1361 98Q1361 130 1339 142Q1318 155 1271 165L1216 177Q1161 191 1129 214Q1097 238 1097 293Q1097 346 1138 374Q1180 403 1242 403Q1266 403 1292 396Q1319 390 1341 377Q1363 364 1372 345L1357 350L1357 395L1416 395L1416 260L1364 260L1351 355L1368 289Q1364 307 1345 320Q1327 334 1302 342Q1278 350 1254 350Q1222 350 1196 337Q1171 324 1171 295Q1171 273 1188 261Q1206 249 1246 239L1297 228Q1335 219 1365 206Q1396 194 1414 170Q1432 147 1432 104Q1432 65 1410 39Q1389 14 1354 2Q1320 -10 1282 -10ZM1742 0L1669 0Q1613 0 1584 28Q1555 57 1555 116L1555 340L1490 340L1490 393L1555 393L1555 527L1629 556L1629 393L1733 393L1733 340L1629 340L1629 120Q1629 83 1641 68Q1653 53 1682 53L1742 53L1742 0ZM2028 0L1956 0L1832 340L1780 340L1780 393L1958 393L1958 340L1904 340L1997 73L2090 340L2034 340L2034 393L2227 393L2227 340L2170 340L2267 72L2353 340L2298 340L2298 393L2475 393L2475 340L2420 340L2302 0L2230 0L2129 279L2028 0ZM2660 -11Q2599 -11 2562 23Q2525 57 2525 106Q2525 151 2546 178Q2568 205 2604 217Q2640 229 2683 229Q2717 229 2752 223Q2788 218 2822 209L2792 204L2792 257Q2792 304 2767 326Q2742 348 2699 348Q2671 348 2633 338Q2596 329 2564 312L2542 360Q2577 382 2621 392Q2665 403 2700 403Q2752 403 2789 386Q2826 369 2845 337Q2865 306 2865 264L2865 53L2927 53L2927 0L2800 0L2794 56L2822 56Q2783 22 2746 5Q2709 -11 2660 -11ZM2671 40Q2708 40 2745 56Q2782 72 2822 105L2792 69L2792 185L2815 167Q2789 175 2756 180Q2723 185 2688 185Q2653 185 2624 169Q2595 154 2595 110Q2595 80 2615 60Q2635 40 2671 40ZM3094 -159L3043 -159L3043 -99L3088 -99Q3114 -99 3130 -95Q3146 -91 3157 -77Q3169 -63 3179 -33L3200 25L3169 25L3023 340L2950 340L2950 393L3156 393L3156 340L3098 340L3216 73L3321 340L3253 340L3253 393L3458 393L3458 340L3394 340L3248 -23Q3230 -69 3214 -99Q3199 -129 3172 -144Q3145 -159 3094 -159Z" fill="#603f83" style=""></path></g></g></g></svg>